# xmcd CD database file
#
# Track frame offsets:
#	150
#	22808
#	44737
#	62108
#	93801
#	116402
#	132892
#	160402
#	178041
#	204059
#	241025
#
# Disc length: 3714 seconds
#
# Revision: 1
# Processed by: cddbd v1.5.2PL0 Copyright (c) Steve Scherf et al.
# Submitted via: CDex 1.50
#
DISCID=850e800b
DTITLE=Various Artist - Jazz City Hamburg Moves CD2
DYEAR=2013
DGENRE=Jazz
TTITLE0=Mischa Schumann - Jokebox
TTITLE1=Nils Gessinger - Toses
TTITLE2=Nina Leni and Nanorange - Walzä
TTITLE3=Papa Carlos Kamin - Vogelhüttendeich
TTITLE4=Sigi Dresen and Friends - Falling
TTITLE5=Tadeusz Jakubowski - Tell me tomorrow
TTITLE6=The Burhorn feat. Yàkoto - You will never know
TTITLE7=Think Big - Nature boy
TTITLE8=Tingvall Trio - Vägen
TTITLE9=Trio Collage - Solothurn
TTITLE10=Wolfgang Schlüter - Yes, I`ve met Miss Jones
EXTD=YEAR: 2013
EXTT0=
EXTT1=
EXTT2=
EXTT3=
EXTT4=
EXTT5=
EXTT6=
EXTT7=
EXTT8=
EXTT9=
EXTT10=
PLAYORDER=
